# xmcd
#
# Track frame offsets:
#	150
#	2084
#	20933
#	38079
#	56312
#	74538
#	93407
#	108305
#	125966
#	147057
#	167074
#	182378
#	210487
#
# Disc length: 3356 seconds
#
# Revision: 1
# Processed by: cddbd v1.5.2PL0 Copyright (c) Steve Scherf et al.
# Submitted via: audiograbber 1.83.01
#
DISCID=b10d1a0d
DTITLE=White Flame - Yesterday's News
DYEAR=2008
DGENRE=Rock
TTITLE0=Loading
TTITLE1=GUN
TTITLE2=The world we live in
TTITLE3=Swimsuit Issue Centerfold
TTITLE4=RockHard
TTITLE5=Miss U
TTITLE6=Down
TTITLE7=Your Joint Tonight
TTITLE8=Yesterday's News
TTITLE9=Hour Of Emptiness
TTITLE10=Kill The Radio
TTITLE11=Close To You
TTITLE12=My Future Ex-Girlfriend
EXTD=
EXTT0=
EXTT1=
EXTT2=
EXTT3=
EXTT4=
EXTT5=
EXTT6=
EXTT7=
EXTT8=
EXTT9=
EXTT10=
EXTT11=
EXTT12=
PLAYORDER=
